<svg xmlns="http://www.w3.org/2000/svg" viewBox="0 0 1200 800" role="img" aria-labelledby="t d"><title id="t">Feed the paper</title><desc id="d">Illustration showing the paper leading edge guided straight into the P6000 feed slot.</desc><defs><linearGradient id="bg" x1="0" y1="0" x2="1" y2="1"><stop stop-color="#f8f6f3"/><stop offset="1" stop-color="#e9e4de"/></linearGradient><filter id="s"><feDropShadow dx="0" dy="12" stdDeviation="14" flood-opacity=".12"/></filter></defs><rect width="1200" height="800" fill="url(#bg)"/><g filter="url(#s)"><rect x="190" y="255" width="820" height="360" rx="38" fill="#353432"/><rect x="240" y="300" width="720" height="255" rx="22" fill="#f6f4f1"/><rect x="290" y="345" width="620" height="150" rx="16" fill="#272522"/><circle cx="600" cy="410" r="92" fill="#ece8e2"/><circle cx="600" cy="410" r="30" fill="#8a847d"/><rect x="350" y="520" width="500" height="28" rx="14" fill="#111"/></g><path d="M430 690c0-102 28-170 85-210 31-22 59-30 85-30s54 8 85 30c57 40 85 108 85 210" fill="#faf9f7" stroke="#c8c0b7" stroke-width="5"/><path d="M600 675V530" stroke="#b51f27" stroke-width="18" stroke-linecap="round"/><path d="m570 560 30-52 30 52" fill="#b51f27"/><path d="M460 620h280" stroke="#8c867f" stroke-width="6" stroke-dasharray="16 14"/><text x="765" y="635" font-family="Arial,sans-serif" font-size="25" font-weight="700" fill="#57524d">KEEP EDGE STRAIGHT</text><circle cx="102" cy="104" r="58" fill="#b51f27"/><text x="102" y="124" text-anchor="middle" font-family="Arial,sans-serif" font-size="58" font-weight="700" fill="white">5</text><text x="180" y="100" font-family="Arial,sans-serif" font-size="42" font-weight="700" fill="#272522">FEED THE PAPER</text><text x="180" y="148" font-family="Arial,sans-serif" font-size="25" fill="#6c6863">Guide the leading edge into the feed slot straight and without slack.</text></svg>