<svg xmlns="http://www.w3.org/2000/svg" viewBox="0 0 1200 800" role="img" aria-labelledby="t d"><title id="t">Prepare the new roll</title><desc id="d">Illustration showing a core adapter being pressed into a new paper roll.</desc><defs><linearGradient id="bg" x1="0" y1="0" x2="1" y2="1"><stop stop-color="#f8f6f3"/><stop offset="1" stop-color="#e9e4de"/></linearGradient><filter id="s"><feDropShadow dx="0" dy="12" stdDeviation="14" flood-opacity=".12"/></filter></defs><rect width="1200" height="800" fill="url(#bg)"/><rect x="135" y="585" width="930" height="20" rx="10" fill="#d8d1c9"/><g filter="url(#s)"><ellipse cx="555" cy="390" rx="225" ry="180" fill="#d9d3cc"/><ellipse cx="555" cy="390" rx="174" ry="140" fill="#f4f1ed"/><ellipse cx="555" cy="390" rx="62" ry="50" fill="#8d877f"/><rect x="690" y="335" width="215" height="110" rx="28" fill="#292826"/><circle cx="700" cy="390" r="64" fill="#3c3a37"/><circle cx="700" cy="390" r="27" fill="#b51f27"/></g><path d="M930 390H735" stroke="#b51f27" stroke-width="18" stroke-linecap="round"/><path d="m770 360-52 30 52 30" fill="#b51f27"/><path d="M400 220c40-62 104-96 177-96" fill="none" stroke="#8b857e" stroke-width="12" stroke-linecap="round"/><text x="425" y="194" font-family="Arial,sans-serif" font-size="26" font-weight="700" fill="#57524d">CONFIRM MEDIA + CORE SIZE</text><circle cx="102" cy="104" r="58" fill="#b51f27"/><text x="102" y="124" text-anchor="middle" font-family="Arial,sans-serif" font-size="58" font-weight="700" fill="white">3</text><text x="180" y="100" font-family="Arial,sans-serif" font-size="42" font-weight="700" fill="#272522">PREPARE THE NEW ROLL</text><text x="180" y="148" font-family="Arial,sans-serif" font-size="25" fill="#6c6863">Confirm the media and press each adapter fully into the roll core.</text></svg>