<svg xmlns="http://www.w3.org/2000/svg" viewBox="0 0 1200 800" role="img" aria-labelledby="t d"><title id="t">Open the roll-paper cover</title><desc id="d">Illustration of an Epson P6000-style printer with the roll-paper cover lifted.</desc><defs><linearGradient id="bg" x1="0" y1="0" x2="1" y2="1"><stop stop-color="#f8f6f3"/><stop offset="1" stop-color="#e9e4de"/></linearGradient><filter id="s"><feDropShadow dx="0" dy="12" stdDeviation="14" flood-opacity=".12"/></filter></defs><rect width="1200" height="800" fill="url(#bg)"/><rect x="110" y="560" width="980" height="18" rx="9" fill="#d8d1c9"/><g filter="url(#s)"><rect x="220" y="280" width="760" height="300" rx="34" fill="#353432"/><rect x="260" y="320" width="680" height="210" rx="20" fill="#f6f4f1"/><rect x="310" y="350" width="580" height="140" rx="16" fill="#272522"/><circle cx="600" cy="420" r="72" fill="#ece8e2"/><circle cx="600" cy="420" r="24" fill="#89837c"/><rect x="910" y="335" width="50" height="95" rx="10" fill="#232220"/><circle cx="935" cy="360" r="8" fill="#b51f27"/></g><g transform="rotate(-16 600 280)" filter="url(#s)"><rect x="290" y="95" width="620" height="180" rx="28" fill="#484643"/><rect x="330" y="130" width="540" height="105" rx="16" fill="#f3f0ec"/></g><path d="M790 120c85 18 140 70 163 150" fill="none" stroke="#b51f27" stroke-width="18" stroke-linecap="round"/><path d="m944 236 17 50-51-14" fill="#b51f27"/><circle cx="102" cy="104" r="58" fill="#b51f27"/><text x="102" y="124" text-anchor="middle" font-family="Arial,sans-serif" font-size="58" font-weight="700" fill="white">1</text><text x="180" y="100" font-family="Arial,sans-serif" font-size="42" font-weight="700" fill="#272522">OPEN THE COVER</text><text x="180" y="148" font-family="Arial,sans-serif" font-size="25" fill="#6c6863">Lift the roll-paper cover until the roll area is fully accessible.</text></svg>