<svg xmlns="http://www.w3.org/2000/svg" viewBox="0 0 1200 800" role="img" aria-labelledby="t d"><title id="t">Seat and lock the roll</title><desc id="d">Illustration showing the new roll aligned between both holders and locked into the printer.</desc><defs><linearGradient id="bg" x1="0" y1="0" x2="1" y2="1"><stop stop-color="#f8f6f3"/><stop offset="1" stop-color="#e9e4de"/></linearGradient><filter id="s"><feDropShadow dx="0" dy="12" stdDeviation="14" flood-opacity=".12"/></filter></defs><rect width="1200" height="800" fill="url(#bg)"/><g filter="url(#s)"><rect x="185" y="300" width="830" height="320" rx="36" fill="#353432"/><rect x="235" y="345" width="730" height="220" rx="22" fill="#f6f4f1"/><rect x="285" y="385" width="630" height="145" rx="16" fill="#272522"/><circle cx="600" cy="455" r="105" fill="#ece8e2"/><circle cx="600" cy="455" r="34" fill="#8a847d"/><rect x="430" y="420" width="58" height="70" rx="14" fill="#393734"/><rect x="712" y="420" width="58" height="70" rx="14" fill="#393734"/></g><path d="M345 455h70M855 455h-70" stroke="#b51f27" stroke-width="18" stroke-linecap="round"/><path d="m400 425 52 30-52 30M800 425l-52 30 52 30" fill="#b51f27"/><circle cx="835" cy="520" r="42" fill="#16815d"/><path d="m816 520 13 14 26-31" fill="none" stroke="white" stroke-width="10" stroke-linecap="round" stroke-linejoin="round"/><circle cx="102" cy="104" r="58" fill="#b51f27"/><text x="102" y="124" text-anchor="middle" font-family="Arial,sans-serif" font-size="58" font-weight="700" fill="white">4</text><text x="180" y="100" font-family="Arial,sans-serif" font-size="42" font-weight="700" fill="#272522">SEAT AND LOCK THE ROLL</text><text x="180" y="148" font-family="Arial,sans-serif" font-size="25" fill="#6c6863">Align the roll, seat both holders, and lock it securely in place.</text></svg>