<svg xmlns="http://www.w3.org/2000/svg" viewBox="0 0 1200 800" role="img" aria-labelledby="t d"><title id="t">Verify before printing</title><desc id="d">Illustration of the P6000 control panel with media settings confirmed and paper feeding straight.</desc><defs><linearGradient id="bg" x1="0" y1="0" x2="1" y2="1"><stop stop-color="#f8f6f3"/><stop offset="1" stop-color="#e9e4de"/></linearGradient><filter id="s"><feDropShadow dx="0" dy="12" stdDeviation="14" flood-opacity=".12"/></filter></defs><rect width="1200" height="800" fill="url(#bg)"/><g filter="url(#s)"><rect x="150" y="275" width="900" height="350" rx="38" fill="#353432"/><rect x="205" y="325" width="590" height="235" rx="22" fill="#f6f4f1"/><rect x="255" y="370" width="490" height="145" rx="16" fill="#272522"/><path d="M340 520h320v105H340z" fill="#faf9f7" stroke="#c8c0b7" stroke-width="4"/><rect x="825" y="330" width="170" height="220" rx="22" fill="#22211f"/><rect x="850" y="355" width="120" height="88" rx="10" fill="#dce7dd"/></g><text x="910" y="386" text-anchor="middle" font-family="Arial,sans-serif" font-size="18" font-weight="700" fill="#2f4032">ROLL PAPER</text><text x="910" y="418" text-anchor="middle" font-family="Arial,sans-serif" font-size="17" fill="#2f4032">24 IN • READY</text><circle cx="875" cy="485" r="18" fill="#16815d"/><circle cx="930" cy="485" r="18" fill="#5c5955"/><circle cx="965" cy="535" r="46" fill="#16815d"/><path d="m944 535 14 15 29-34" fill="none" stroke="white" stroke-width="11" stroke-linecap="round" stroke-linejoin="round"/><path d="M455 600h210" stroke="#b51f27" stroke-width="8" stroke-linecap="round"/><circle cx="102" cy="104" r="58" fill="#b51f27"/><text x="102" y="124" text-anchor="middle" font-family="Arial,sans-serif" font-size="58" font-weight="700" fill="white">6</text><text x="180" y="100" font-family="Arial,sans-serif" font-size="42" font-weight="700" fill="#272522">VERIFY BEFORE PRINTING</text><text x="180" y="148" font-family="Arial,sans-serif" font-size="25" fill="#6c6863">Confirm media settings and make sure the paper feeds evenly.</text></svg>